#N canvas 646 219 529 457 12;
#X obj 299 22 r pitch @hv_param;
#X obj 299 83 phasor~;
#X obj 30 22 adc~;
#X obj 320 289 hip~ 10000 1.4;
#X obj 320 320 hip~ 10000 1.4;
#X obj 236 83 phasor~;
#X obj 361 83 phasor~;
#X obj 361 59 * 2;
#X obj 236 59 * 1.5;
#X obj 299 122 -~ 1.5;
#X obj 72 22 r alt_f @hv_param 1 3 2;
#X obj 30 61 *~;
#X obj 30 429 dac~ 1;
#X obj 30 404 *~ 10;
#N canvas 160 160 591 300 chan 0;
#X obj 477 50 inlet~;
#X obj 477 193 *~;
#X obj 477 240 outlet~;
#X obj 274 49 inlet;
#X obj 149 49 inlet~;
#X obj 341 49 inlet;
#X obj 399 49 inlet;
#X obj 149 113 bp~ 304 20;
#X obj 477 139 bp~ 304 20;
#X obj 149 139 hv.envfollow~ 6.5 50;
#X connect 0 0 8 0;
#X connect 1 0 2 0;
#X connect 3 0 7 2;
#X connect 3 0 8 2;
#X connect 4 0 7 0;
#X connect 5 0 9 1;
#X connect 6 0 9 2;
#X connect 7 0 9 0;
#X connect 8 0 1 0;
#X connect 9 0 1 1;
#X restore 30 197 pd chan 304;
#N canvas 160 160 562 300 chan 0;
#X obj 477 50 inlet~;
#X obj 477 193 *~;
#X obj 477 240 outlet~;
#X obj 274 49 inlet;
#X obj 149 49 inlet~;
#X obj 341 49 inlet;
#X obj 399 49 inlet;
#X obj 477 139 bp~ 456 20;
#X obj 149 113 bp~ 456 20;
#X obj 149 140 hv.envfollow~ 6.5 50;
#X connect 0 0 7 0;
#X connect 1 0 2 0;
#X connect 3 0 7 2;
#X connect 3 0 8 2;
#X connect 4 0 8 0;
#X connect 5 0 9 1;
#X connect 6 0 9 2;
#X connect 7 0 1 0;
#X connect 8 0 9 0;
#X connect 9 0 1 1;
#X restore 63 222 pd chan 456;
#N canvas 160 160 450 300 chan 0;
#X obj 477 50 inlet~;
#X obj 477 193 *~;
#X obj 477 240 outlet~;
#X obj 216 49 inlet;
#X obj 274 49 inlet;
#X obj 149 49 inlet~;
#X obj 341 49 inlet;
#X obj 399 49 inlet;
#X obj 149 113 bp~ 760 20;
#X obj 477 139 bp~ 760 20;
#X obj 149 139 hv.envfollow~ 6.5 50;
#X connect 0 0 9 0;
#X connect 1 0 2 0;
#X connect 3 0 8 1;
#X connect 3 0 9 1;
#X connect 4 0 8 2;
#X connect 4 0 9 2;
#X connect 5 0 8 0;
#X connect 6 0 10 1;
#X connect 7 0 10 2;
#X connect 8 0 10 0;
#X connect 9 0 1 0;
#X connect 10 0 1 1;
#X restore 96 247 pd chan 760;
#N canvas 160 160 450 300 chan 0;
#X obj 477 50 inlet~;
#X obj 477 193 *~;
#X obj 477 240 outlet~;
#X obj 274 49 inlet;
#X obj 149 49 inlet~;
#X obj 341 49 inlet;
#X obj 399 49 inlet;
#X obj 149 113 bp~ 1267 20;
#X obj 477 139 bp~ 1267 20;
#X obj 149 139 hv.envfollow~ 6.5 50;
#X connect 0 0 8 0;
#X connect 1 0 2 0;
#X connect 3 0 7 2;
#X connect 3 0 8 2;
#X connect 4 0 7 0;
#X connect 5 0 9 1;
#X connect 6 0 9 2;
#X connect 7 0 9 0;
#X connect 8 0 1 0;
#X connect 9 0 1 1;
#X restore 129 272 pd chan 1267;
#N canvas 160 160 450 300 chan 0;
#X obj 477 50 inlet~;
#X obj 477 193 *~;
#X obj 477 240 outlet~;
#X obj 274 49 inlet;
#X obj 149 49 inlet~;
#X obj 341 49 inlet;
#X obj 399 49 inlet;
#X obj 149 113 bp~ 2111 20;
#X obj 477 139 bp~ 2111 20;
#X obj 149 139 hv.envfollow~ 6.5 50;
#X connect 0 0 8 0;
#X connect 1 0 2 0;
#X connect 3 0 7 2;
#X connect 3 0 8 2;
#X connect 4 0 7 0;
#X connect 5 0 9 1;
#X connect 6 0 9 2;
#X connect 7 0 9 0;
#X connect 8 0 1 0;
#X connect 9 0 1 1;
#X restore 162 297 pd chan 2111;
#N canvas 160 160 450 300 chan 0;
#X obj 477 50 inlet~;
#X obj 477 193 *~;
#X obj 477 240 outlet~;
#X obj 274 49 inlet;
#X obj 149 49 inlet~;
#X obj 341 49 inlet;
#X obj 399 49 inlet;
#X obj 149 113 bp~ 3519 20;
#X obj 477 139 bp~ 3519 20;
#X obj 149 139 hv.envfollow~ 6.5 50;
#X connect 0 0 8 0;
#X connect 1 0 2 0;
#X connect 3 0 7 2;
#X connect 3 0 8 2;
#X connect 4 0 7 0;
#X connect 5 0 9 1;
#X connect 6 0 9 2;
#X connect 7 0 9 0;
#X connect 8 0 1 0;
#X connect 9 0 1 1;
#X restore 195 322 pd chan 3519;
#X connect 0 0 1 0;
#X connect 0 0 8 0;
#X connect 0 0 7 1;
#X connect 1 0 9 0;
#X connect 2 0 11 0;
#X connect 2 1 11 0;
#X connect 3 0 4 0;
#X connect 4 0 12 0;
#X connect 5 0 9 0;
#X connect 6 0 9 0;
#X connect 7 0 6 0;
#X connect 8 0 5 0;
#X connect 9 0 14 4;
#X connect 9 0 15 4;
#X connect 9 0 16 5;
#X connect 9 0 17 4;
#X connect 9 0 18 4;
#X connect 9 0 19 4;
#X connect 10 0 11 1;
#X connect 11 0 14 0;
#X connect 11 0 15 0;
#X connect 11 0 16 0;
#X connect 11 0 17 0;
#X connect 11 0 18 0;
#X connect 11 0 19 0;
#X connect 11 0 3 0;
#X connect 13 0 12 0;
#X connect 14 0 13 0;
#X connect 15 0 13 0;
#X connect 16 0 13 0;
#X connect 17 0 13 0;
#X connect 18 0 13 0;
#X connect 19 0 13 0;
