#N canvas 276 99 789 498 12;
#X obj 384 95 phasor~;
#X obj 30 22 adc~;
#X obj 443 120 phasor~;
#X obj 512 135 phasor~;
#X obj 384 169 -~ 1.5;
#X obj 80 22 r alt_f @hv_param 1 3 2;
#X obj 30 61 *~;
#X obj 30 437 dac~ 1;
#X obj 30 404 *~ 10;
#N canvas 160 160 591 300 chan 0;
#X obj 223 35 inlet~;
#X obj 223 178 *~;
#X obj 223 225 outlet~;
#X obj 114 34 inlet;
#X obj 47 34 inlet~;
#X obj 165 34 inlet;
#N canvas 306 457 450 300 envfollow 0;
#X obj 174 23 inlet;
#X obj 33 46 abs~;
#X obj 33 70 max~;
#X obj 101 22 r~ env1;
#X obj 101 46 *~ 0.97;
#X obj 101 94 s~ env1;
#X obj 33 22 inlet~;
#X obj 33 94 outlet~;
#X connect 0 0 4 1;
#X connect 1 0 2 0;
#X connect 2 0 5 0;
#X connect 2 0 7 0;
#X connect 3 0 4 0;
#X connect 4 0 2 1;
#X connect 6 0 1 0;
#X restore 47 124 pd envfollow;
#X obj 47 98 bp~ 267 15;
#X obj 223 124 bp~ 267 15;
#X connect 0 0 8 0;
#X connect 1 0 2 0;
#X connect 3 0 7 2;
#X connect 3 0 8 2;
#X connect 4 0 7 0;
#X connect 5 0 6 1;
#X connect 6 0 1 1;
#X connect 7 0 6 0;
#X connect 8 0 1 0;
#X restore 30 197 pd chan 245;
#N canvas 160 160 562 300 chan 0;
#X obj 223 35 inlet~;
#X obj 223 178 *~;
#X obj 223 225 outlet~;
#X obj 114 34 inlet;
#X obj 47 34 inlet~;
#X obj 165 34 inlet;
#N canvas 306 457 450 300 envfollow 0;
#X obj 174 23 inlet;
#X obj 33 46 abs~;
#X obj 33 70 max~;
#X obj 101 46 *~ 0.97;
#X obj 33 22 inlet~;
#X obj 33 94 outlet~;
#X obj 101 22 r~ env2;
#X obj 101 94 s~ env2;
#X connect 0 0 3 1;
#X connect 1 0 2 0;
#X connect 2 0 5 0;
#X connect 2 0 7 0;
#X connect 3 0 2 1;
#X connect 4 0 1 0;
#X connect 6 0 3 0;
#X restore 47 124 pd envfollow;
#X obj 47 98 bp~ 444 15;
#X obj 223 124 bp~ 444 15;
#X connect 0 0 8 0;
#X connect 1 0 2 0;
#X connect 3 0 7 2;
#X connect 3 0 8 2;
#X connect 4 0 7 0;
#X connect 5 0 6 1;
#X connect 6 0 1 1;
#X connect 7 0 6 0;
#X connect 8 0 1 0;
#X restore 63 222 pd chan 367;
#N canvas 160 160 450 362 chan 0;
#X obj 223 35 inlet~;
#X obj 223 178 *~;
#X obj 223 225 outlet~;
#X obj 114 34 inlet;
#X obj 47 34 inlet~;
#X obj 165 34 inlet;
#N canvas 306 457 450 300 envfollow 0;
#X obj 174 23 inlet;
#X obj 33 46 abs~;
#X obj 33 70 max~;
#X obj 101 46 *~ 0.97;
#X obj 33 22 inlet~;
#X obj 33 94 outlet~;
#X obj 101 22 r~ env3;
#X obj 101 94 s~ env3;
#X connect 0 0 3 1;
#X connect 1 0 2 0;
#X connect 2 0 5 0;
#X connect 2 0 7 0;
#X connect 3 0 2 1;
#X connect 4 0 1 0;
#X connect 6 0 3 0;
#X restore 47 124 pd envfollow;
#X obj 47 98 bp~ 741 15;
#X obj 224 125 bp~ 741 15;
#X connect 0 0 8 0;
#X connect 1 0 2 0;
#X connect 3 0 7 2;
#X connect 3 0 8 2;
#X connect 4 0 7 0;
#X connect 5 0 6 1;
#X connect 6 0 1 1;
#X connect 7 0 6 0;
#X connect 8 0 1 0;
#X restore 96 247 pd chan 551;
#N canvas 160 160 450 300 chan 0;
#X obj 223 35 inlet~;
#X obj 223 178 *~;
#X obj 223 225 outlet~;
#X obj 114 34 inlet;
#X obj 47 34 inlet~;
#X obj 165 34 inlet;
#N canvas 306 457 450 300 envfollow 0;
#X obj 174 23 inlet;
#X obj 33 46 abs~;
#X obj 33 70 max~;
#X obj 101 46 *~ 0.97;
#X obj 33 22 inlet~;
#X obj 33 94 outlet~;
#X obj 101 22 r~ env4;
#X obj 101 94 s~ env4;
#X connect 0 0 3 1;
#X connect 1 0 2 0;
#X connect 2 0 5 0;
#X connect 2 0 7 0;
#X connect 3 0 2 1;
#X connect 4 0 1 0;
#X connect 6 0 3 0;
#X restore 47 124 pd envfollow;
#X obj 47 98 bp~ 1235 15;
#X obj 223 124 bp~ 1235 15;
#X connect 0 0 8 0;
#X connect 1 0 2 0;
#X connect 3 0 7 2;
#X connect 3 0 8 2;
#X connect 4 0 7 0;
#X connect 5 0 6 1;
#X connect 6 0 1 1;
#X connect 7 0 6 0;
#X connect 8 0 1 0;
#X restore 129 272 pd chan 827;
#N canvas 160 160 450 300 chan 0;
#X obj 223 35 inlet~;
#X obj 223 178 *~;
#X obj 223 225 outlet~;
#X obj 114 34 inlet;
#X obj 47 34 inlet~;
#X obj 165 34 inlet;
#N canvas 306 457 450 300 envfollow 0;
#X obj 174 23 inlet;
#X obj 33 46 abs~;
#X obj 33 70 max~;
#X obj 101 46 *~ 0.97;
#X obj 33 22 inlet~;
#X obj 33 94 outlet~;
#X obj 101 22 r~ env5;
#X obj 101 94 s~ env5;
#X connect 0 0 3 1;
#X connect 1 0 2 0;
#X connect 2 0 5 0;
#X connect 2 0 7 0;
#X connect 3 0 2 1;
#X connect 4 0 1 0;
#X connect 6 0 3 0;
#X restore 47 124 pd envfollow;
#X obj 47 98 bp~ 2058 15;
#X obj 223 124 bp~ 2058 15;
#X connect 0 0 8 0;
#X connect 1 0 2 0;
#X connect 3 0 7 2;
#X connect 3 0 8 2;
#X connect 4 0 7 0;
#X connect 5 0 6 1;
#X connect 6 0 1 1;
#X connect 7 0 6 0;
#X connect 8 0 1 0;
#X restore 162 297 pd chan 1240;
#N canvas 160 160 450 300 chan 0;
#X obj 223 35 inlet~;
#X obj 223 178 *~;
#X obj 223 225 outlet~;
#X obj 114 34 inlet;
#X obj 47 34 inlet~;
#X obj 165 34 inlet;
#N canvas 306 457 450 300 envfollow 0;
#X obj 174 23 inlet;
#X obj 33 46 abs~;
#X obj 33 70 max~;
#X obj 101 46 *~ 0.97;
#X obj 33 22 inlet~;
#X obj 33 94 outlet~;
#X obj 101 22 r~ env6;
#X obj 101 94 s~ env6;
#X connect 0 0 3 1;
#X connect 1 0 2 0;
#X connect 2 0 5 0;
#X connect 2 0 7 0;
#X connect 3 0 2 1;
#X connect 4 0 1 0;
#X connect 6 0 3 0;
#X restore 47 124 pd envfollow;
#X obj 47 98 bp~ 3429 15;
#X obj 223 124 bp~ 3429 15;
#X connect 0 0 8 0;
#X connect 1 0 2 0;
#X connect 3 0 7 2;
#X connect 3 0 8 2;
#X connect 4 0 7 0;
#X connect 5 0 6 1;
#X connect 6 0 1 1;
#X connect 7 0 6 0;
#X connect 8 0 1 0;
#X restore 195 322 pd chan 1860;
#N canvas 160 160 450 300 chan 0;
#X obj 223 35 inlet~;
#X obj 223 178 *~;
#X obj 223 225 outlet~;
#X obj 114 34 inlet;
#X obj 47 34 inlet~;
#X obj 165 34 inlet;
#N canvas 306 457 450 300 envfollow 0;
#X obj 174 23 inlet;
#X obj 33 46 abs~;
#X obj 33 70 max~;
#X obj 101 46 *~ 0.97;
#X obj 33 22 inlet~;
#X obj 33 94 outlet~;
#X obj 101 22 r~ env7;
#X obj 101 94 s~ env7;
#X connect 0 0 3 1;
#X connect 1 0 2 0;
#X connect 2 0 5 0;
#X connect 2 0 7 0;
#X connect 3 0 2 1;
#X connect 4 0 1 0;
#X connect 6 0 3 0;
#X restore 47 124 pd envfollow;
#X obj 47 98 bp~ 5716 15;
#X obj 223 124 bp~ 5716 15;
#X connect 0 0 8 0;
#X connect 1 0 2 0;
#X connect 3 0 7 2;
#X connect 3 0 8 2;
#X connect 4 0 7 0;
#X connect 5 0 6 1;
#X connect 6 0 1 1;
#X connect 7 0 6 0;
#X connect 8 0 1 0;
#X restore 230 349 pd chan 5716;
#X obj 384 60 mtof;
#X obj 384 10 r pitch_note @hv_param;
#X obj 512 109 mtof;
#X obj 443 94 mtof;
#X obj 512 81 +;
#X obj 443 66 +;
#X obj 110 73 r shape_f @hv_param 0.99 0.999 0.995;
#X obj 374 348 hip~ 10000 8;
#X obj 374 379 hip~ 10000 8;
#X obj 472 32 r note1 @hv_param 0 12 7;
#X obj 540 56 r note2 @hv_param 0 12 12;
#X text 365 234 Carrier Signal;
#X text 134 95 Envelope follower damping coeff;
#X text 97 41 Modulator gain;
#X connect 0 0 4 0;
#X connect 1 0 6 0;
#X connect 1 1 6 0;
#X connect 2 0 4 0;
#X connect 3 0 4 0;
#X connect 4 0 9 3;
#X connect 4 0 10 3;
#X connect 4 0 11 3;
#X connect 4 0 12 3;
#X connect 4 0 13 3;
#X connect 4 0 14 3;
#X connect 4 0 15 3;
#X connect 5 0 6 1;
#X connect 6 0 9 0;
#X connect 6 0 10 0;
#X connect 6 0 11 0;
#X connect 6 0 12 0;
#X connect 6 0 13 0;
#X connect 6 0 14 0;
#X connect 6 0 15 0;
#X connect 6 0 23 0;
#X connect 8 0 7 0;
#X connect 9 0 8 0;
#X connect 10 0 8 0;
#X connect 11 0 8 0;
#X connect 12 0 8 0;
#X connect 13 0 8 0;
#X connect 14 0 8 0;
#X connect 16 0 0 0;
#X connect 17 0 16 0;
#X connect 17 0 20 0;
#X connect 17 0 21 0;
#X connect 18 0 3 0;
#X connect 19 0 2 0;
#X connect 20 0 18 0;
#X connect 21 0 19 0;
#X connect 22 0 9 2;
#X connect 22 0 10 2;
#X connect 22 0 11 2;
#X connect 22 0 12 2;
#X connect 22 0 13 2;
#X connect 22 0 14 2;
#X connect 22 0 15 2;
#X connect 23 0 24 0;
#X connect 24 0 7 0;
#X connect 25 0 21 1;
#X connect 26 0 20 1;
