#N canvas 756 310 545 300 12;
#X obj 49 55 *~ 1;
#X obj 49 254 dac~ 1;
#X obj 50 21 adc~;
#X obj 98 19 r alt_f @hv_param 0 4 2;
#X obj 141 57 r pitch @hv_param;
#X obj 98 82 phasor~;
#X obj 98 219 *~ 1;
#X obj 123 113 r noteon_trig @hv_param;
#X obj 123 138 f 1;
#X obj 136 163 r noteoff_trig @hv_param;
#X obj 136 188 f 0;
#X text 292 114 On/Off phasor~;
#X text 277 19 AUX sound volume;
#X text 277 58 oscillator pitch;
#X connect 0 0 1 0;
#X connect 2 0 0 0;
#X connect 2 1 0 0;
#X connect 3 0 0 1;
#X connect 4 0 5 0;
#X connect 5 0 6 0;
#X connect 6 0 1 0;
#X connect 7 0 8 0;
#X connect 8 0 6 1;
#X connect 9 0 10 0;
#X connect 10 0 6 1;
