#N canvas 203 119 840 477 12;
#X obj 24 129 phasor~;
#X obj 27 68 hsl 115 17 100 2000 0 0 empty empty empty -2 -8 0 10 #e4e4e4 #4d4d4d #373737 0 1;
#X obj 24 252 -~ 0.25;
#X obj 24 278 cos~;
#X obj 186 68 hsl 128 17 0 1 0 0 empty empty empty -2 -8 0 10 #e4e4e4 #4d4d4d #373737 0 1;
#X obj 24 32 r pitch @hv_param;
#X obj 363 68 hsl 128 17 0.5 8 0 0 empty empty empty -2 -8 0 10 #e4e4e4 #4d4d4d #373737 0 1;
#X obj 360 92 t b f;
#X obj 24 351 dac~ 1;
#X obj 183 129 f 1;
#X obj 24 226 *~;
#N canvas 0 0 450 250 (subpatch) 0;
#X array array1 512 float 0;
#X coords 0 1 511 -1 200 140 1;
#X restore 302 284 graph;
#X obj 183 354 tabwrite~ array1;
#X obj 183 316 metro 100;
#X obj 183 284 bng 25 250 50 0 empty empty empty 17 7 0 10 #e4e4e4 #4d4d4d #373737;
#X obj 183 161 * 1;
#X msg 219 286 stop;
#X floatatom 183 226 5 0 0 0 - - - 0;
#X obj 183 32 r shape_f @hv_param;
#X obj 183 187 + 1;
#X obj 360 32 r alt_f @hv_param 0.5 8 1.5;
#X obj 585 68 hsl 128 17 0.5 1 0 0 empty empty empty -2 -8 0 10 #e4e4e4 #4d4d4d #373737 0 1;
#X obj 582 32 r offset_f @hv_param 0.5 1 1;
#X obj 582 92 t b f;
#X text 296 172 *~ \, +~ in hvcc doesn't keep the value at the left inlet \, so store the value in [f] and bang it when a parameter is changed, f 35;
#X connect 0 0 10 0;
#X connect 1 0 0 0;
#X connect 2 0 3 0;
#X connect 3 0 8 0;
#X connect 3 0 12 0;
#X connect 4 0 9 0;
#X connect 5 0 1 0;
#X connect 6 0 7 0;
#X connect 7 0 9 0;
#X connect 7 1 15 1;
#X connect 9 0 15 0;
#X connect 10 0 2 0;
#X connect 13 0 12 0;
#X connect 14 0 13 0;
#X connect 15 0 19 0;
#X connect 16 0 13 0;
#X connect 18 0 4 0;
#X connect 19 0 17 0;
#X connect 19 0 10 1;
#X connect 20 0 6 0;
#X connect 21 0 23 0;
#X connect 22 0 21 0;
#X connect 23 0 9 0;
#X connect 23 1 19 1;
