#N canvas 478 217 527 430 12;
#X obj 24 399 dac~;
#X obj 87 90 *~ 4;
#X obj 124 140 wrap~;
#X obj 87 175 -~;
#X obj 87 208 *~ 0.25;
#X obj 174 53 pow 2;
#X obj 174 175 pow -1;
#X obj 24 24 adc~;
#X obj 174 24 r time @hv_param 1 8 4;
#X obj 174 241 r depth_f @hv_param;
#X obj 130 299 *~;
#X obj 24 335 *~;
#X obj 49 274 * -1;
#X obj 49 300 + 1;
#X connect 1 0 2 0;
#X connect 1 0 3 0;
#X connect 2 0 3 1;
#X connect 3 0 4 0;
#X connect 4 0 10 0;
#X connect 5 0 1 1;
#X connect 5 0 6 0;
#X connect 6 0 4 1;
#X connect 7 0 1 0;
#X connect 7 0 11 0;
#X connect 7 1 1 0;
#X connect 7 1 11 0;
#X connect 8 0 5 0;
#X connect 9 0 10 1;
#X connect 9 0 12 0;
#X connect 10 0 0 0;
#X connect 10 0 0 1;
#X connect 11 0 0 0;
#X connect 11 0 0 1;
#X connect 12 0 13 0;
#X connect 13 0 11 1;
