#N canvas 425 146 545 300 12;
#X obj 50 21 adc~;
#X obj 51 182 dac~;
#X obj 102 21 r depth_f @hv_param 0 1 1;
#X msg 102 46 \$1 10;
#X obj 102 71 line~;
#X obj 43 122 *~;
#X obj 83 122 *~;
#X connect 0 0 5 0;
#X connect 0 1 6 0;
#X connect 2 0 3 0;
#X connect 3 0 4 0;
#X connect 4 0 6 1;
#X connect 4 0 5 1;
#X connect 5 0 1 0;
#X connect 6 0 1 1;
