#N canvas 362 152 630 373 12;
#X obj 228 60 adc~;
#X obj 199 213 cos~;
#X obj 224 299 dac~;
#X obj 199 181 *~ 0.5;
#X obj 263 213 cos~;
#X obj 263 181 *~ 0.5;
#X obj 415 135 r~ env_1;
#X obj 333 213 max~;
#X obj 415 161 *~ 0.9;
#X obj 263 256 *~;
#X obj 415 256 s~ env_1;
#X obj 106 213 max~;
#X obj 22 161 *~ 0.9;
#X obj 199 256 *~;
#X obj 245 24 r depth_f @hv_param 0.9 0.995 0.9;
#X obj 22 256 s~ env_0;
#X obj 22 135 r~ env_0;
#X obj 130 135 abs~;
#X obj 333 135 abs~;
#X obj 263 105 +~;
#X obj 199 105 +~;
#X obj 20 24 r time_f @hv_param 0.5 10 1;
#X obj 281 60 r env_1;
#X obj 155 60 r env_0;
#X connect 0 0 17 0;
#X connect 0 0 20 1;
#X connect 0 1 18 0;
#X connect 0 1 19 0;
#X connect 1 0 13 1;
#X connect 3 0 1 0;
#X connect 4 0 9 0;
#X connect 5 0 4 0;
#X connect 6 0 8 0;
#X connect 7 0 9 1;
#X connect 7 0 10 0;
#X connect 8 0 7 1;
#X connect 9 0 2 1;
#X connect 11 0 13 0;
#X connect 11 0 15 0;
#X connect 12 0 11 0;
#X connect 13 0 2 0;
#X connect 14 0 8 1;
#X connect 14 0 12 1;
#X connect 16 0 12 0;
#X connect 17 0 11 1;
#X connect 18 0 7 0;
#X connect 19 0 5 0;
#X connect 20 0 3 0;
#X connect 21 0 5 1;
#X connect 21 0 3 1;
#X connect 22 0 19 1;
#X connect 23 0 20 0;
