#N canvas 779 257 527 327 12;
#X obj 80 162 *~;
#X obj 99 74 osc~;
#X obj 99 114 *~ 0.5;
#X obj 25 204 *~;
#X obj 168 126 * -1;
#X obj 168 152 + 1;
#X obj 25 279 dac~;
#X obj 24 24 adc~;
#X obj 175 78 r depth_f @hv_param;
#X obj 174 24 r time @hv_param 100 10340 5220;
#X connect 0 0 6 0;
#X connect 0 0 6 1;
#X connect 1 0 2 0;
#X connect 2 0 0 1;
#X connect 3 0 6 0;
#X connect 3 0 6 1;
#X connect 4 0 5 0;
#X connect 5 0 3 1;
#X connect 7 0 0 0;
#X connect 7 0 3 0;
#X connect 7 1 0 0;
#X connect 7 1 3 0;
#X connect 8 0 2 1;
#X connect 8 0 4 0;
#X connect 9 0 1 0;
