#N canvas 166 215 576 434 12;
#X obj 120 99 samphold~;
#X obj 161 45 phasor~;
#X obj 195 100 samphold~;
#X obj 40 14 adc~ 1 2;
#X obj 39 311 dac~ 1 2;
#X obj 161 14 r time_f @hv_param 400 16000 7800;
#X obj 216 135 r depth_f @hv_param;
#X obj 180 241 *~;
#X obj 40 242 *~;
#X obj 53 177 * -1;
#X obj 53 203 + 1;
#X obj 136 242 *~;
#X obj 91 243 *~;
#X connect 0 0 11 0;
#X connect 1 0 0 1;
#X connect 1 0 2 1;
#X connect 2 0 7 0;
#X connect 3 0 0 0;
#X connect 3 0 8 0;
#X connect 3 1 2 0;
#X connect 3 1 12 0;
#X connect 5 0 1 0;
#X connect 6 0 7 1;
#X connect 6 0 9 0;
#X connect 6 0 11 1;
#X connect 7 0 4 1;
#X connect 8 0 4 0;
#X connect 9 0 10 0;
#X connect 10 0 8 1;
#X connect 10 0 12 1;
#X connect 11 0 4 0;
#X connect 12 0 4 1;
