#N canvas 669 439 450 300 12;
#X obj 51 16 adc~, f 5;
#X obj 51 133 dac~, f 5;
#X obj 109 100 *~ -1;
#X obj 12 100 *~ -1;
#X obj 129 58 * -1;
#X obj 129 18 r depth_f @hv_param;
#X connect 0 0 2 0;
#X connect 0 0 1 0;
#X connect 0 1 3 0;
#X connect 0 1 1 1;
#X connect 2 0 1 1;
#X connect 3 0 1 0;
#X connect 4 0 3 1;
#X connect 4 0 2 1;
#X connect 5 0 4 0;
