#N canvas 827 239 527 327 12;
#X obj 67 120 hv.compressor~;
#X msg 99 63 threshold \$1;
#X msg 230 113 ratio \$1;
#X obj 36 63 adc~;
#X obj 36 223 dac~;
#X obj 24 174 hv.compressor~;
#X obj 99 24 r time @hv_param 20 100 60;
#X obj 230 80 r depth_f @hv_param 1 3 2;
#X connect 0 0 4 1;
#X connect 1 0 0 1;
#X connect 1 0 5 1;
#X connect 2 0 0 1;
#X connect 2 0 5 1;
#X connect 3 0 5 0;
#X connect 3 1 0 0;
#X connect 5 0 4 0;
#X connect 6 0 1 0;
#X connect 7 0 2 0;
