#N canvas 550 141 707 597 12;
#X obj 67 151 *~ 0;
#X obj 24 21 adc~ 1 2;
#X obj 22 486 dac~ 1 2;
#X obj 85 424 *~;
#X obj 23 423 *~;
#X obj 133 368 + 0.5;
#X obj 133 336 * -1;
#X obj 323 296 r depth_f @hv_param;
#X obj 322 145 r time_f @hv_param 0 1 0.5;
#X obj 93 78 delwrite~ buf1 50;
#X obj 93 104 delread~ buf1 50 1913 samples;
#X obj 112 128 * 0.871402;
#X obj 104 277 *~ 0;
#X obj 136 205 delwrite~ buf2 50;
#X obj 136 231 delread~ buf2 50 1733 samples;
#X obj 155 255 * 0.882762;
#X obj 23 54 +~;
#X obj 189 368 + 0.2;
#X connect 0 0 3 0;
#X connect 0 0 9 0;
#X connect 1 0 16 0;
#X connect 1 1 16 1;
#X connect 3 0 2 0;
#X connect 3 0 2 1;
#X connect 4 0 2 0;
#X connect 4 0 2 1;
#X connect 5 0 4 1;
#X connect 6 0 5 0;
#X connect 7 0 6 0;
#X connect 7 0 17 0;
#X connect 8 0 11 0;
#X connect 8 0 15 0;
#X connect 10 0 0 0;
#X connect 11 0 0 1;
#X connect 12 0 3 0;
#X connect 12 0 13 0;
#X connect 14 0 12 0;
#X connect 15 0 12 1;
#X connect 16 0 13 0;
#X connect 16 0 4 0;
#X connect 16 0 9 0;
#X connect 17 0 3 1;
