#N canvas 774 239 527 327 12;
#X obj 24 24 adc~ 1 2;
#X obj 93 147 *~;
#X obj 24 283 dac~ 1 2;
#X obj 142 147 *~;
#X obj 168 59 osc~;
#X obj 168 99 *~ 0.5;
#X obj 222 132 * -1;
#X obj 222 158 + 1;
#X obj 228 22 r time @hv_param 100 10340 5220;
#X obj 228 72 r depth_f @hv_param;
#X obj 25 216 *~;
#X obj 76 216 *~;
#X obj 168 124 *~ -1;
#X connect 0 0 1 0;
#X connect 0 0 10 0;
#X connect 0 1 3 0;
#X connect 0 1 11 0;
#X connect 1 0 2 0;
#X connect 3 0 2 1;
#X connect 4 0 5 0;
#X connect 5 0 1 1;
#X connect 5 0 12 0;
#X connect 6 0 7 0;
#X connect 7 0 10 1;
#X connect 7 0 11 1;
#X connect 8 0 4 0;
#X connect 9 0 5 1;
#X connect 9 0 6 0;
#X connect 10 0 2 0;
#X connect 11 0 2 1;
#X connect 12 0 3 1;
