#N canvas 592 204 709 486 12;
#X obj 111 132 osc~;
#X obj 119 162 *~;
#X obj 119 199 +~ 15;
#X obj 36 435 dac~ 1 2;
#X obj 36 6 adc~ 1 2;
#X obj 159 128 r depth_f @hv_param 0.5 1.5 1;
#X obj 159 94 r time_f @hv_param 0.1 10 0.5;
#X obj 98 59 delwrite~ buf_l 100;
#X obj 221 59 delwrite~ buf_r 100;
#X obj 241 211 +~ 15;
#X obj 119 234 delread4~ buf_l;
#X obj 241 234 delread4~ buf_r;
#X obj 153 371 *~;
#X obj 36 372 *~;
#X obj 98 309 * -1;
#X obj 98 335 + 1;
#X obj 72 372 *~;
#X obj 204 371 *~;
#X obj 181 281 r mix_f @hv_param 0 1 0.5;
#X obj 241 187 *~ -1;
#X connect 0 0 1 0;
#X connect 1 0 2 0;
#X connect 1 0 19 0;
#X connect 2 0 10 0;
#X connect 4 0 7 0;
#X connect 4 0 13 0;
#X connect 4 1 8 0;
#X connect 4 1 16 0;
#X connect 5 0 1 1;
#X connect 6 0 0 0;
#X connect 9 0 11 0;
#X connect 10 0 12 0;
#X connect 11 0 17 0;
#X connect 12 0 3 0;
#X connect 13 0 3 0;
#X connect 14 0 15 0;
#X connect 15 0 13 1;
#X connect 15 0 16 1;
#X connect 16 0 3 1;
#X connect 17 0 3 1;
#X connect 18 0 12 1;
#X connect 18 0 14 0;
#X connect 18 0 17 1;
#X connect 19 0 9 0;
