#N canvas 599 143 538 528 12;
#X obj 114 302 *~ 0;
#X obj 253 171 r time @hv_param 20 1000 500;
#X obj 114 410 *~;
#X obj 19 409 *~;
#X obj 45 410 *~;
#X obj 260 255 r depth_f @hv_param 0 1 0.5;
#X obj 53 351 * -1;
#X obj 212 103 delwrite~ buf_r 1000;
#X obj 113 128 delwrite~ buf_l 1000;
#X obj 211 212 delread~ buf_r 250;
#X obj 113 237 delread~ buf_l 250;
#X obj 211 302 *~ 0;
#X obj 210 410 *~;
#X obj 274 307 r mix_f @hv_param 0 1 0.5;
#X obj 53 383 + 1;
#X obj 211 70 lop~;
#X obj 236 35 r freq @hv_param 200 16000 8000;
#X obj 19 16 adc~;
#X obj 19 459 dac~;
#X connect 0 0 2 0;
#X connect 0 0 15 0;
#X connect 1 0 9 0;
#X connect 1 0 10 0;
#X connect 2 0 18 0;
#X connect 3 0 18 0;
#X connect 4 0 18 1;
#X connect 5 0 11 1;
#X connect 5 0 0 1;
#X connect 6 0 14 0;
#X connect 9 0 11 0;
#X connect 10 0 0 0;
#X connect 11 0 12 0;
#X connect 11 0 8 0;
#X connect 12 0 18 1;
#X connect 13 0 6 0;
#X connect 13 0 12 1;
#X connect 13 0 2 1;
#X connect 14 0 3 1;
#X connect 14 0 4 1;
#X connect 15 0 7 0;
#X connect 16 0 15 1;
#X connect 17 0 3 0;
#X connect 17 0 15 0;
#X connect 17 1 4 0;
#X connect 17 1 15 0;
