#N canvas 592 204 709 486 12;
#X obj 36 181 +~;
#X obj 61 82 osc~;
#X obj 69 112 *~;
#X obj 69 159 delread4~ buf;
#X obj 69 136 +~ 15;
#X obj 36 212 dac~ 1 2;
#X obj 36 6 adc~ 1 2;
#X obj 109 78 r depth_f @hv_param 0.5 1.5 1;
#X obj 61 30 delwrite~ buf 100;
#X obj 61 54 r time_f @hv_param 0.1 10 0.5;
#X connect 0 0 5 0;
#X connect 0 0 5 1;
#X connect 1 0 2 0;
#X connect 2 0 4 0;
#X connect 3 0 0 1;
#X connect 4 0 3 0;
#X connect 6 0 0 0;
#X connect 6 0 8 0;
#X connect 7 0 2 1;
#X connect 9 0 1 0;
