#N canvas 550 141 707 597 12;
#X obj 42 311 *~ 0;
#X obj 292 164 hsl 128 16 1 50 0 0 empty empty empty -2 -8 0 10 #e4e4e4 #4d4d4d #373737 0 1;
#X obj 292 262 hsl 128 17 -1 1 0 0 empty empty empty -2 -8 0 10 #e4e4e4 #4d4d4d #373737 0 1;
#X obj 24 24 adc~ 1 2;
#X obj 24 489 dac~ 1 2;
#X obj 292 336 hsl 128 17 -0.5 0.5 0 0 empty empty empty -2 -8 0 10 #e4e4e4 #4d4d4d #373737 0 1;
#X obj 42 370 *~;
#X obj 24 439 *~;
#X obj 123 342 + 0.5;
#X obj 77 440 *~;
#X obj 289 307 r mix_f @hv_param -0.5 0.5 0;
#X obj 123 408 + 0.5;
#X obj 123 376 * -1;
#X text 424 262 Feedback amount;
#X text 426 334 Dry/Wet mix ratio;
#X obj 112 101 +~;
#X text 425 163 Delay time in samples;
#N canvas 50 32 450 300 delay-writer 0;
#X obj 109 170 outlet~;
#X obj 109 111 inlet~;
#X obj 145 145 delwrite~ buf 50;
#X connect 1 0 0 0;
#X connect 1 0 2 0;
#X restore 111 177 pd delay-writer;
#X text 115 201 This connection ensures writing before reading;
#X obj 108 257 delread~ buf 25;
#X obj 289 232 r depth_f @hv_param -0.9 0.9 0.5;
#X obj 289 134 r time @hv_param 0.125 50 25;
#X connect 0 0 6 0;
#X connect 0 0 15 1;
#X connect 1 0 19 0;
#X connect 2 0 0 1;
#X connect 3 0 7 0;
#X connect 3 0 15 0;
#X connect 3 1 9 0;
#X connect 3 1 15 0;
#X connect 5 0 8 0;
#X connect 5 0 12 0;
#X connect 6 0 4 0;
#X connect 6 0 4 1;
#X connect 7 0 4 0;
#X connect 8 0 6 1;
#X connect 9 0 4 1;
#X connect 10 0 5 0;
#X connect 11 0 7 1;
#X connect 11 0 9 1;
#X connect 12 0 11 0;
#X connect 15 0 17 0;
#X connect 19 0 0 0;
#X connect 20 0 2 0;
#X connect 21 0 1 0;
