#N canvas 774 239 527 327 12;
#X obj 49 49 adc~;
#X obj 49 225 dac~;
#X obj 102 155 hsl 128 17 0 250 0 0 empty empty empty -2 -8 0 10 #e4e4e4 #4d4d4d #373737 0 1;
#X obj 99 99 delwrite~ buf 500;
#X obj 99 182 delread~ buf 250;
#X obj 99 127 r time @hv_param 0 499 250;
#X connect 0 0 1 0;
#X connect 0 0 3 0;
#X connect 0 1 1 1;
#X connect 0 1 3 0;
#X connect 2 0 4 0;
#X connect 4 0 1 1;
#X connect 4 0 1 0;
#X connect 5 0 2 0;
