#N canvas 640 136 472 397 12;
#X obj 29 32 adc~, f 8;
#X obj 103 114 hv.freqshift~;
#X obj 192 62 sig~;
#X obj 209 114 hv.freqshift~;
#X obj 29 332 dac~, f 8;
#X obj 138 265 *~;
#X obj 29 265 *~;
#X obj 146 192 * -1;
#X obj 146 218 + 1;
#X obj 81 265 *~;
#X obj 189 265 *~;
#X obj 220 151 r depth_f @hv_param 0 1 1;
#X obj 192 32 r time @hv_param -200 200 100;
#X connect 0 0 1 0;
#X connect 0 0 6 0;
#X connect 0 1 3 0;
#X connect 0 1 9 0;
#X connect 1 0 5 0;
#X connect 2 0 1 1;
#X connect 2 0 3 1;
#X connect 3 0 10 0;
#X connect 5 0 4 0;
#X connect 6 0 4 0;
#X connect 7 0 8 0;
#X connect 8 0 6 1;
#X connect 8 0 9 1;
#X connect 9 0 4 1;
#X connect 10 0 4 1;
#X connect 11 0 5 1;
#X connect 11 0 7 0;
#X connect 11 0 10 1;
#X connect 12 0 2 0;
