#N canvas 827 239 527 327 12;
#X obj 50 49 adc~, f 10;
#X obj 123 156 hv.freqshift~;
#X obj 213 79 sig~;
#X obj 217 156 hv.freqshift~;
#X obj 50 380 dac~, f 10;
#X obj 159 282 *~;
#X obj 50 282 *~;
#X obj 167 209 * -1;
#X obj 167 235 + 1;
#X obj 101 282 *~;
#X obj 210 282 *~;
#X obj 249 199 r depth_f @hv_param 0 1 1;
#X obj 213 49 r time @hv_param -200 200 100;
#X connect 0 0 1 0;
#X connect 0 0 6 0;
#X connect 0 1 3 0;
#X connect 0 1 9 0;
#X connect 1 0 5 0;
#X connect 2 0 1 1;
#X connect 2 0 3 1;
#X connect 3 0 10 0;
#X connect 5 0 4 0;
#X connect 6 0 4 0;
#X connect 7 0 8 0;
#X connect 8 0 6 1;
#X connect 8 0 9 1;
#X connect 9 0 4 1;
#X connect 10 0 4 1;
#X connect 11 0 5 1;
#X connect 11 0 7 0;
#X connect 11 0 10 1;
#X connect 12 0 2 0;
