#N canvas 550 141 707 597 12;
#X obj 112 101 lop~;
#X obj 174 50 r freq @hv_param 200 16000 8000;
#X obj 42 311 *~ 0;
#X obj 281 164 hsl 128 16 100 1000 0 0 empty empty empty -2 -8 0 10 #e4e4e4 #4d4d4d #373737 0 1;
#X obj 281 237 hsl 128 17 0 1 0 0 empty empty empty -2 -8 0 10 #e4e4e4 #4d4d4d #373737 0 1;
#X obj 278 134 r time @hv_param 20 1000 500;
#X obj 24 24 adc~ 1 2;
#X obj 24 489 dac~ 1 2;
#X obj 177 81 hsl 128 17 200 16000 1 0 empty empty empty -2 -8 0 10 #e4e4e4 #4d4d4d #373737 0 1;
#X obj 281 311 hsl 128 17 -0.5 0.5 0 0 empty empty empty -2 -8 0 10 #e4e4e4 #4d4d4d #373737 0 1;
#X obj 42 370 *~;
#X obj 24 439 *~;
#X obj 123 342 + 0.5;
#X obj 77 440 *~;
#X obj 278 282 r mix_f @hv_param -0.5 0.5 0;
#X obj 278 207 r depth_f @hv_param 0 1 0.5;
#X obj 123 408 + 0.5;
#X obj 123 376 * -1;
#X obj 112 139 delwrite~ buf 1000;
#X obj 111 232 delread~ buf 250;
#X text 315 81 Cutoff frequency of LPF;
#X text 414 163 Delay time in ms;
#X text 413 237 Feedback amount;
#X text 415 309 Dry/Wet mix ratio;
#X connect 0 0 18 0;
#X connect 1 0 8 0;
#X connect 2 0 0 0;
#X connect 2 0 10 0;
#X connect 3 0 19 0;
#X connect 4 0 2 1;
#X connect 5 0 3 0;
#X connect 6 0 0 0;
#X connect 6 0 11 0;
#X connect 6 1 13 0;
#X connect 6 1 0 0;
#X connect 8 0 0 1;
#X connect 9 0 12 0;
#X connect 9 0 17 0;
#X connect 10 0 7 0;
#X connect 10 0 7 1;
#X connect 11 0 7 0;
#X connect 12 0 10 1;
#X connect 13 0 7 1;
#X connect 14 0 9 0;
#X connect 15 0 4 0;
#X connect 16 0 11 1;
#X connect 16 0 13 1;
#X connect 17 0 16 0;
#X connect 19 0 2 0;
